<mxfile host="app.diagrams.net" agent="Mozilla/5.0 (Windows NT 10.0; Win64; x64) AppleWebKit/537.36 (KHTML, like Gecko) Chrome/131.0.0.0 Safari/537.36 Edg/131.0.0.0" version="26.0.2">
  <diagram name="第 1 页" id="hoe_uviKCq4_seSVUSrM">
    <mxGraphModel dx="719" dy="1535" grid="1" gridSize="10" guides="1" tooltips="1" connect="1" arrows="1" fold="1" page="1" pageScale="1" pageWidth="827" pageHeight="1169" math="0" shadow="0">
      <root>
        <mxCell id="0" />
        <mxCell id="1" parent="0" />
        <mxCell id="rtPav9sDxlK6I4rT2-NP-52" style="edgeStyle=orthogonalEdgeStyle;rounded=1;orthogonalLoop=1;jettySize=auto;html=1;" parent="1" source="rtPav9sDxlK6I4rT2-NP-2" target="rtPav9sDxlK6I4rT2-NP-46" edge="1">
          <mxGeometry relative="1" as="geometry" />
        </mxCell>
        <mxCell id="rtPav9sDxlK6I4rT2-NP-2" value="departments" style="rounded=1;whiteSpace=wrap;html=1;fillColor=#d5e8d4;strokeColor=#82b366;" parent="1" vertex="1">
          <mxGeometry x="75.5" y="107" width="82.5" height="40" as="geometry" />
        </mxCell>
        <mxCell id="rtPav9sDxlK6I4rT2-NP-3" value="Type" style="whiteSpace=wrap;html=1;rounded=1;fillColor=#d5e8d4;strokeColor=#82b366;" parent="1" vertex="1">
          <mxGeometry x="361" y="107" width="100" height="40" as="geometry" />
        </mxCell>
        <mxCell id="rtPav9sDxlK6I4rT2-NP-9" value="" style="endArrow=classic;html=1;rounded=1;entryX=0;entryY=0.5;entryDx=0;entryDy=0;" parent="1" target="rtPav9sDxlK6I4rT2-NP-12" edge="1">
          <mxGeometry width="50" height="50" relative="1" as="geometry">
            <mxPoint x="461" y="109.5" as="sourcePoint" />
            <mxPoint x="501" y="67" as="targetPoint" />
          </mxGeometry>
        </mxCell>
        <mxCell id="rtPav9sDxlK6I4rT2-NP-10" value="" style="endArrow=classic;html=1;rounded=1;" parent="1" edge="1">
          <mxGeometry width="50" height="50" relative="1" as="geometry">
            <mxPoint x="461" y="131.5" as="sourcePoint" />
            <mxPoint x="521" y="132" as="targetPoint" />
          </mxGeometry>
        </mxCell>
        <mxCell id="rtPav9sDxlK6I4rT2-NP-11" value="" style="endArrow=classic;html=1;rounded=1;entryX=0;entryY=0.5;entryDx=0;entryDy=0;exitX=1;exitY=1;exitDx=0;exitDy=0;" parent="1" source="rtPav9sDxlK6I4rT2-NP-3" target="rtPav9sDxlK6I4rT2-NP-14" edge="1">
          <mxGeometry width="50" height="50" relative="1" as="geometry">
            <mxPoint x="461" y="154.5" as="sourcePoint" />
            <mxPoint x="501" y="185" as="targetPoint" />
          </mxGeometry>
        </mxCell>
        <mxCell id="rtPav9sDxlK6I4rT2-NP-20" value="" style="edgeStyle=orthogonalEdgeStyle;rounded=1;orthogonalLoop=1;jettySize=auto;html=1;dashed=1;" parent="1" source="rtPav9sDxlK6I4rT2-NP-12" target="rtPav9sDxlK6I4rT2-NP-19" edge="1">
          <mxGeometry relative="1" as="geometry" />
        </mxCell>
        <mxCell id="hFlQjNNTX_GSIiSx0fy3-6" value="" style="edgeStyle=orthogonalEdgeStyle;rounded=0;orthogonalLoop=1;jettySize=auto;html=1;" edge="1" parent="1" source="rtPav9sDxlK6I4rT2-NP-12" target="rtPav9sDxlK6I4rT2-NP-25">
          <mxGeometry relative="1" as="geometry" />
        </mxCell>
        <mxCell id="rtPav9sDxlK6I4rT2-NP-12" value="本部门 类型" style="rounded=1;whiteSpace=wrap;html=1;" parent="1" vertex="1">
          <mxGeometry x="522" y="57" width="86" height="40" as="geometry" />
        </mxCell>
        <mxCell id="rtPav9sDxlK6I4rT2-NP-18" value="" style="edgeStyle=orthogonalEdgeStyle;rounded=1;orthogonalLoop=1;jettySize=auto;html=1;dashed=1;" parent="1" source="rtPav9sDxlK6I4rT2-NP-13" target="rtPav9sDxlK6I4rT2-NP-17" edge="1">
          <mxGeometry relative="1" as="geometry" />
        </mxCell>
        <mxCell id="rtPav9sDxlK6I4rT2-NP-13" value="多部门 类型" style="rounded=1;whiteSpace=wrap;html=1;" parent="1" vertex="1">
          <mxGeometry x="522" y="107" width="86" height="40" as="geometry" />
        </mxCell>
        <mxCell id="rtPav9sDxlK6I4rT2-NP-22" value="" style="edgeStyle=orthogonalEdgeStyle;rounded=1;orthogonalLoop=1;jettySize=auto;html=1;dashed=1;" parent="1" source="rtPav9sDxlK6I4rT2-NP-14" target="rtPav9sDxlK6I4rT2-NP-21" edge="1">
          <mxGeometry relative="1" as="geometry" />
        </mxCell>
        <mxCell id="rtPav9sDxlK6I4rT2-NP-14" value="超级 类型" style="rounded=1;whiteSpace=wrap;html=1;" parent="1" vertex="1">
          <mxGeometry x="522" y="157" width="86" height="40" as="geometry" />
        </mxCell>
        <mxCell id="rtPav9sDxlK6I4rT2-NP-17" value="多部门数据操作" style="rounded=1;whiteSpace=wrap;html=1;" parent="1" vertex="1">
          <mxGeometry x="677" y="110" width="93" height="35" as="geometry" />
        </mxCell>
        <mxCell id="rtPav9sDxlK6I4rT2-NP-19" value="本部数据操作" style="whiteSpace=wrap;html=1;rounded=1;" parent="1" vertex="1">
          <mxGeometry x="677" y="59" width="93" height="34" as="geometry" />
        </mxCell>
        <mxCell id="rtPav9sDxlK6I4rT2-NP-21" value="任何部门都可以操作" style="rounded=1;whiteSpace=wrap;html=1;" parent="1" vertex="1">
          <mxGeometry x="677" y="160" width="113" height="34" as="geometry" />
        </mxCell>
        <mxCell id="rtPav9sDxlK6I4rT2-NP-35" value="" style="edgeStyle=orthogonalEdgeStyle;rounded=1;orthogonalLoop=1;jettySize=auto;html=1;" parent="1" source="rtPav9sDxlK6I4rT2-NP-23" target="rtPav9sDxlK6I4rT2-NP-34" edge="1">
          <mxGeometry relative="1" as="geometry" />
        </mxCell>
        <mxCell id="rtPav9sDxlK6I4rT2-NP-23" value="permissions" style="whiteSpace=wrap;html=1;rounded=1;fillColor=#d5e8d4;strokeColor=#82b366;" parent="1" vertex="1">
          <mxGeometry x="211" y="312" width="100" height="35" as="geometry" />
        </mxCell>
        <mxCell id="hFlQjNNTX_GSIiSx0fy3-5" style="edgeStyle=orthogonalEdgeStyle;rounded=0;orthogonalLoop=1;jettySize=auto;html=1;entryX=0;entryY=0.5;entryDx=0;entryDy=0;dashed=1;" edge="1" parent="1" source="rtPav9sDxlK6I4rT2-NP-25" target="hFlQjNNTX_GSIiSx0fy3-4">
          <mxGeometry relative="1" as="geometry" />
        </mxCell>
        <mxCell id="rtPav9sDxlK6I4rT2-NP-25" value="self 类型" style="rounded=1;whiteSpace=wrap;html=1;" parent="1" vertex="1">
          <mxGeometry x="522" y="7" width="86" height="40" as="geometry" />
        </mxCell>
        <mxCell id="rtPav9sDxlK6I4rT2-NP-26" value="" style="endArrow=classic;html=1;rounded=1;entryX=0;entryY=0.5;entryDx=0;entryDy=0;" parent="1" target="rtPav9sDxlK6I4rT2-NP-25" edge="1">
          <mxGeometry width="50" height="50" relative="1" as="geometry">
            <mxPoint x="455" y="107" as="sourcePoint" />
            <mxPoint x="505" y="7" as="targetPoint" />
          </mxGeometry>
        </mxCell>
        <mxCell id="rtPav9sDxlK6I4rT2-NP-27" value="新&lt;br&gt;增" style="rounded=1;whiteSpace=wrap;html=1;fillColor=#008a00;fontColor=#ffffff;strokeColor=#005700;" parent="1" vertex="1">
          <mxGeometry x="161" y="451" width="30" height="60" as="geometry" />
        </mxCell>
        <mxCell id="rtPav9sDxlK6I4rT2-NP-28" value="编&lt;br&gt;辑" style="rounded=1;whiteSpace=wrap;html=1;fillColor=#60a917;fontColor=#ffffff;strokeColor=#2D7600;" parent="1" vertex="1">
          <mxGeometry x="204" y="451" width="30" height="60" as="geometry" />
        </mxCell>
        <mxCell id="rtPav9sDxlK6I4rT2-NP-29" value="删&lt;br&gt;除" style="rounded=1;whiteSpace=wrap;html=1;fillColor=#f0a30a;fontColor=#000000;strokeColor=#BD7000;" parent="1" vertex="1">
          <mxGeometry x="246" y="451" width="30" height="60" as="geometry" />
        </mxCell>
        <mxCell id="rtPav9sDxlK6I4rT2-NP-30" value="导&lt;br&gt;入" style="rounded=1;whiteSpace=wrap;html=1;fillColor=#fad9d5;strokeColor=#ae4132;" parent="1" vertex="1">
          <mxGeometry x="286" y="451" width="30" height="60" as="geometry" />
        </mxCell>
        <mxCell id="rtPav9sDxlK6I4rT2-NP-39" style="edgeStyle=orthogonalEdgeStyle;rounded=1;orthogonalLoop=1;jettySize=auto;html=1;entryX=0.5;entryY=0;entryDx=0;entryDy=0;" parent="1" source="rtPav9sDxlK6I4rT2-NP-34" target="rtPav9sDxlK6I4rT2-NP-29" edge="1">
          <mxGeometry relative="1" as="geometry" />
        </mxCell>
        <mxCell id="rtPav9sDxlK6I4rT2-NP-34" value="menu" style="whiteSpace=wrap;html=1;rounded=1;fillColor=#d5e8d4;strokeColor=#82b366;" parent="1" vertex="1">
          <mxGeometry x="206" y="382" width="110" height="40" as="geometry" />
        </mxCell>
        <mxCell id="rtPav9sDxlK6I4rT2-NP-40" value="查&lt;br&gt;看" style="rounded=1;whiteSpace=wrap;html=1;fillColor=#fff2cc;gradientColor=#ffd966;strokeColor=#d6b656;" parent="1" vertex="1">
          <mxGeometry x="374.5" y="451" width="30" height="60" as="geometry" />
        </mxCell>
        <mxCell id="rtPav9sDxlK6I4rT2-NP-41" value="导&lt;br&gt;出" style="rounded=1;whiteSpace=wrap;html=1;fillColor=#bac8d3;strokeColor=#23445d;" parent="1" vertex="1">
          <mxGeometry x="331" y="451" width="30" height="60" as="geometry" />
        </mxCell>
        <mxCell id="rtPav9sDxlK6I4rT2-NP-42" value="其他........" style="rounded=1;whiteSpace=wrap;html=1;fillColor=#f5f5f5;gradientColor=#b3b3b3;strokeColor=#666666;" parent="1" vertex="1">
          <mxGeometry x="91" y="451" width="60" height="60" as="geometry" />
        </mxCell>
        <mxCell id="rtPav9sDxlK6I4rT2-NP-57" style="edgeStyle=orthogonalEdgeStyle;rounded=1;orthogonalLoop=1;jettySize=auto;html=1;entryX=0.5;entryY=0;entryDx=0;entryDy=0;" parent="1" source="rtPav9sDxlK6I4rT2-NP-44" target="rtPav9sDxlK6I4rT2-NP-23" edge="1">
          <mxGeometry relative="1" as="geometry" />
        </mxCell>
        <mxCell id="hFlQjNNTX_GSIiSx0fy3-3" value="setting" style="edgeLabel;html=1;align=center;verticalAlign=middle;resizable=0;points=[];" vertex="1" connectable="0" parent="rtPav9sDxlK6I4rT2-NP-57">
          <mxGeometry x="-0.1923" y="1" relative="1" as="geometry">
            <mxPoint as="offset" />
          </mxGeometry>
        </mxCell>
        <mxCell id="rtPav9sDxlK6I4rT2-NP-68" style="edgeStyle=orthogonalEdgeStyle;rounded=1;orthogonalLoop=1;jettySize=auto;html=1;entryX=0.5;entryY=1;entryDx=0;entryDy=0;strokeColor=#E07A5F;fontFamily=Helvetica;fontSize=12;fontColor=default;fontStyle=1;fillColor=#F2CC8F;" parent="1" source="rtPav9sDxlK6I4rT2-NP-44" target="rtPav9sDxlK6I4rT2-NP-63" edge="1">
          <mxGeometry relative="1" as="geometry" />
        </mxCell>
        <mxCell id="rtPav9sDxlK6I4rT2-NP-44" value="roles" style="whiteSpace=wrap;html=1;rounded=1;fillColor=#d5e8d4;strokeColor=#82b366;" parent="1" vertex="1">
          <mxGeometry x="211" y="230" width="100" height="30" as="geometry" />
        </mxCell>
        <mxCell id="rtPav9sDxlK6I4rT2-NP-48" style="edgeStyle=orthogonalEdgeStyle;rounded=1;orthogonalLoop=1;jettySize=auto;html=1;" parent="1" source="rtPav9sDxlK6I4rT2-NP-46" target="rtPav9sDxlK6I4rT2-NP-3" edge="1">
          <mxGeometry relative="1" as="geometry">
            <mxPoint x="352" y="127" as="targetPoint" />
          </mxGeometry>
        </mxCell>
        <mxCell id="hFlQjNNTX_GSIiSx0fy3-1" value="setting" style="edgeLabel;html=1;align=center;verticalAlign=middle;resizable=0;points=[];" vertex="1" connectable="0" parent="rtPav9sDxlK6I4rT2-NP-48">
          <mxGeometry x="-0.2293" y="2" relative="1" as="geometry">
            <mxPoint as="offset" />
          </mxGeometry>
        </mxCell>
        <mxCell id="rtPav9sDxlK6I4rT2-NP-49" style="edgeStyle=orthogonalEdgeStyle;rounded=1;orthogonalLoop=1;jettySize=auto;html=1;entryX=0.5;entryY=0;entryDx=0;entryDy=0;" parent="1" source="rtPav9sDxlK6I4rT2-NP-46" target="rtPav9sDxlK6I4rT2-NP-44" edge="1">
          <mxGeometry relative="1" as="geometry">
            <mxPoint x="261" y="197" as="targetPoint" />
          </mxGeometry>
        </mxCell>
        <mxCell id="hFlQjNNTX_GSIiSx0fy3-2" value="setting" style="edgeLabel;html=1;align=center;verticalAlign=middle;resizable=0;points=[];" vertex="1" connectable="0" parent="rtPav9sDxlK6I4rT2-NP-49">
          <mxGeometry x="-0.0843" y="-4" relative="1" as="geometry">
            <mxPoint as="offset" />
          </mxGeometry>
        </mxCell>
        <mxCell id="rtPav9sDxlK6I4rT2-NP-46" value="Employees" style="whiteSpace=wrap;html=1;rounded=1;fillColor=#e51400;fontColor=#ffffff;strokeColor=#B20000;" parent="1" vertex="1">
          <mxGeometry x="211" y="107" width="100" height="40" as="geometry" />
        </mxCell>
        <mxCell id="rtPav9sDxlK6I4rT2-NP-51" style="edgeStyle=orthogonalEdgeStyle;rounded=1;orthogonalLoop=1;jettySize=auto;html=1;entryX=0;entryY=0.5;entryDx=0;entryDy=0;exitX=0.5;exitY=1;exitDx=0;exitDy=0;dashed=1;" parent="1" source="rtPav9sDxlK6I4rT2-NP-2" target="rtPav9sDxlK6I4rT2-NP-2" edge="1">
          <mxGeometry relative="1" as="geometry">
            <Array as="points">
              <mxPoint x="120" y="167" />
              <mxPoint x="51" y="167" />
              <mxPoint x="51" y="127" />
            </Array>
          </mxGeometry>
        </mxCell>
        <mxCell id="rtPav9sDxlK6I4rT2-NP-53" value="tree" style="edgeLabel;html=1;align=center;verticalAlign=middle;resizable=0;points=[];rounded=1;" parent="rtPav9sDxlK6I4rT2-NP-51" vertex="1" connectable="0">
          <mxGeometry x="-0.2374" y="2" relative="1" as="geometry">
            <mxPoint x="1" y="-2" as="offset" />
          </mxGeometry>
        </mxCell>
        <mxCell id="rtPav9sDxlK6I4rT2-NP-54" style="edgeStyle=orthogonalEdgeStyle;rounded=1;orthogonalLoop=1;jettySize=auto;html=1;entryX=1;entryY=0.5;entryDx=0;entryDy=0;dashed=1;" parent="1" source="rtPav9sDxlK6I4rT2-NP-34" target="rtPav9sDxlK6I4rT2-NP-34" edge="1">
          <mxGeometry relative="1" as="geometry">
            <Array as="points">
              <mxPoint x="191" y="402" />
              <mxPoint x="191" y="362" />
              <mxPoint x="336" y="362" />
              <mxPoint x="336" y="402" />
            </Array>
          </mxGeometry>
        </mxCell>
        <mxCell id="rtPav9sDxlK6I4rT2-NP-55" value="tree" style="edgeLabel;html=1;align=center;verticalAlign=middle;resizable=0;points=[];rounded=1;" parent="rtPav9sDxlK6I4rT2-NP-54" vertex="1" connectable="0">
          <mxGeometry x="0.3477" relative="1" as="geometry">
            <mxPoint as="offset" />
          </mxGeometry>
        </mxCell>
        <mxCell id="rtPav9sDxlK6I4rT2-NP-63" value="用户部门类型" style="swimlane;whiteSpace=wrap;html=1;fillColor=#ffe6cc;strokeColor=#d79b00;rounded=1;glass=0;shadow=1;" parent="1" vertex="1">
          <mxGeometry x="510" y="-20" width="110" height="240" as="geometry">
            <mxRectangle x="515" y="-20" width="110" height="30" as="alternateBounds" />
          </mxGeometry>
        </mxCell>
        <mxCell id="hFlQjNNTX_GSIiSx0fy3-4" value="本人创建的数据" style="whiteSpace=wrap;html=1;rounded=1;" vertex="1" parent="1">
          <mxGeometry x="676" y="10" width="94" height="34" as="geometry" />
        </mxCell>
      </root>
    </mxGraphModel>
  </diagram>
</mxfile>
